<?xml version="1.0" encoding="utf-8"?>
<!-- Designed by Vexels.com - 2019 All Rights Reserved - https://vexels.com/terms-and-conditions/  -->
<svg version="1.1" id="Layer_1" xmlns="http://www.w3.org/2000/svg" xmlns:xlink="http://www.w3.org/1999/xlink" x="0px" y="0px"
	 viewBox="0 0 1200 1200" enable-background="new 0 0 1200 1200" xml:space="preserve">
<g>
	<path fill="#1F2A35" d="M526.669,178.408c1.11,3.521,2.475,6.987,4.067,10.373l0.599,1.27l0.301,0.634l0.459,0.879l0.136,0.245
		l1.093,1.962l1.094,1.965c0.198,0.344,0.331,0.617,0.582,1.021l0.796,1.256l3.248,4.991l3.198,4.256
		c1.057,1.449,2.195,2.712,3.305,4.045c1.115,1.323,2.231,2.654,3.38,3.86c9.228,9.916,18.714,17.971,27.192,25.528
		c4.279,3.793,8.131,7.527,11.765,11.193l2.64,2.766l2.425,2.794c0.851,0.918,1.514,1.879,2.257,2.818l1.095,1.409l0.281,0.348
		l0.14,0.174c0.109,0.168-0.698-1.175-0.322-0.553l0.073,0.111l0.581,0.891c0.774,1.185,1.546,2.367,2.313,3.542l1.149,1.76
		l0.709,1.356c0.891,1.83,1.991,3.331,2.794,5.578c0.877,2.082,1.899,4.111,2.5,6.281c0.716,2.13,1.472,4.245,1.886,6.431
		c2.185,8.63,2.817,17.356,2.459,25.476c-0.302,8.159-1.941,15.624-3.871,22.167c-1.867,6.612-4.558,12.05-6.857,16.584
		c-2.497,4.375-4.61,7.929-6.381,10.06c-1.661,2.292-2.547,3.514-2.547,3.514l1.686,2.018c0,0,1.327-0.826,3.817-2.374
		c2.54-1.539,6-4.163,10.18-7.943c0.989-1.001,2.032-2.055,3.125-3.162c0.547-0.564,1.107-1.14,1.679-1.729
		c0.514-0.633,1.038-1.281,1.574-1.942c1.071-1.345,2.186-2.745,3.342-4.197c1.118-1.488,2.082-3.144,3.187-4.817
		c4.225-6.756,8.324-15.043,10.87-24.783c2.637-9.7,4-20.794,3.113-32.675c-0.124-2.98-0.631-5.969-1.144-9.015
		c-0.402-3.066-1.249-6.098-2.07-9.185c-0.685-3.005-2.154-6.403-3.417-9.688l-0.998-2.453l-0.915-1.892
		c-0.612-1.264-1.225-2.534-1.842-3.809l-0.463-0.957l-0.992-1.698l-1.306-2.117c-0.884-1.401-1.737-2.873-2.702-4.183
		c-0.948-1.345-1.9-2.695-2.855-4.05l-2.993-3.864c-4.014-5.105-8.381-9.827-12.675-14.246
		c-8.554-8.975-17.254-16.857-24.082-24.975c-0.916-0.994-1.706-2.001-2.512-3.001c-0.793-1.003-1.668-1.992-2.35-3.006
		l-2.183-2.998c-0.54-0.869-1.095-1.725-1.667-2.57l-0.432-0.632c-0.151-0.23-0.352-0.631-0.526-0.938l-1.08-1.973l-1.05-1.918
		l-0.141-0.297l-0.364-0.755c-0.98-2.009-1.813-4.098-2.523-6.227c-1.483-4.239-2.42-8.665-2.953-13.085
		c-0.22-2.214-0.405-4.429-0.397-6.631c0.002-1.099,0.017-2.197,0.057-3.288c0.065-1.094,0.12-2.221,0.212-3.06
		c0.012-0.706,0.28-2.308,0.48-3.668l0.039-0.26l0.019-0.125l0.033-0.151l0.174-0.801l0.338-1.603
		c0.254-1.06,0.371-2.155,0.671-3.204c0.307-1.051,0.614-2.097,0.919-3.136c1.214-4.186,3.052-8.161,4.912-12.115
		c0.997-1.949,2.149-3.825,3.188-5.732c1.193-1.868,2.368-3.707,3.524-5.515c1.295-1.775,2.569-3.521,3.819-5.234
		c1.346-1.701,2.666-3.37,3.959-5.005c5.409-6.447,10.939-12.251,16.01-17.365c5.077-5.113,9.731-9.536,13.557-13.227
		c3.841-3.748,6.859-6.692,8.917-8.7c2.065-2.043,3.132-3.189,3.132-3.189L619.743,50c0,0-1.508,0.423-4.272,1.321
		c-2.768,0.867-6.796,2.294-11.877,4.257c-5.042,2.026-11.158,4.564-17.979,8.087c-6.809,3.532-14.443,7.867-22.3,13.734
		c-1.944,1.525-3.928,3.08-5.95,4.666c-1.933,1.752-3.903,3.537-5.907,5.353c-1.91,1.96-3.899,3.939-5.83,6.045
		c-1.815,2.24-3.73,4.464-5.534,6.871c-3.563,4.869-6.902,10.251-9.589,16.232c-0.663,1.503-1.331,3.014-2.001,4.533
		c-0.661,1.527-1.118,3.149-1.656,4.748l-0.776,2.421l-0.386,1.218l-0.192,0.611l-0.22,0.89c-0.35,1.388-0.694,2.537-1.068,4.632
		c-0.397,1.947-0.635,3.645-0.886,5.383c-0.223,1.744-0.419,3.503-0.529,5.271c-0.241,3.538-0.247,7.111-0.076,10.701
		C523.152,164.144,524.414,171.373,526.669,178.408z"/>
	<path fill="#1F2A35" d="M439.232,185.165c0.938,2.989,2.097,5.932,3.447,8.81l0.509,1.079l0.256,0.539l0.546,1.031l0.889,1.592
		l0.889,1.594l0.478,0.837l0.68,1.078l2.786,4.28l2.692,3.573c1.817,2.318,3.703,4.534,5.598,6.595
		c7.717,8.219,15.49,14.773,22.366,20.774c3.471,3.02,6.55,5.958,9.464,8.798l2.11,2.142l1.928,2.15c0.68,0.708,1.2,1.44,1.79,2.159
		l0.869,1.077l0.224,0.265l0.112,0.133c0.104,0.161-0.706-1.19-0.335-0.574l0.06,0.089l0.483,0.717l1.922,2.85l0.955,1.416
		l0.548,0.997c0.689,1.348,1.547,2.388,2.21,4.141c0.717,1.595,1.563,3.148,2.07,4.825c0.601,1.643,1.238,3.277,1.601,4.976
		c1.896,6.699,2.597,13.559,2.521,20.002c-0.034,6.474-1.133,12.456-2.483,17.747c-1.303,5.346-3.287,9.793-4.996,13.531
		c-1.869,3.608-3.457,6.58-4.822,8.365c-1.27,1.93-1.948,2.959-1.948,2.959l1.686,2.018c0,0,1.119-0.633,3.217-1.82
		c2.134-1.193,5.07-3.236,8.621-6.248c1.611-1.621,3.705-3.275,5.44-5.482c0.918-1.088,1.873-2.22,2.863-3.395
		c0.962-1.205,1.791-2.554,2.743-3.917c3.646-5.504,7.205-12.308,9.483-20.364c2.355-8.022,3.65-17.251,3.051-27.201
		c-0.073-2.494-0.461-5.003-0.859-7.561c-0.307-2.573-0.978-5.128-1.64-7.729c-0.545-2.511-1.772-5.447-2.832-8.251l-0.838-2.095
		l-0.721-1.548c-0.482-1.035-0.965-2.073-1.451-3.117l-0.365-0.783l-0.883-1.531l-1.08-1.785c-0.731-1.181-1.441-2.423-2.235-3.523
		l-2.357-3.406l-2.463-3.241c-3.294-4.279-6.887-8.205-10.374-11.851c-6.951-7.419-13.939-13.801-19.255-20.221
		c-1.376-1.577-2.619-3.137-3.775-4.698l-1.676-2.314c-0.386-0.632-0.786-1.25-1.204-1.858l-0.316-0.455
		c-0.113-0.169-0.283-0.507-0.421-0.753l-0.876-1.602l-0.803-1.469l-0.089-0.187l-0.273-0.564c-0.738-1.501-1.364-3.067-1.903-4.665
		c-1.131-3.177-1.862-6.506-2.303-9.836c-0.184-1.668-0.351-3.338-0.367-4.999l0.002-2.483l0.108-2.265
		c-0.024-0.443,0.186-1.785,0.335-2.886l0.044-0.317c-0.15,0.684-0.032,0.146-0.062,0.279l0.062-0.306l0.121-0.611l0.233-1.224
		c0.179-0.809,0.243-1.65,0.452-2.455l0.644-2.414c0.846-3.229,2.197-6.323,3.547-9.446c0.734-1.539,1.596-3.029,2.367-4.546
		c0.895-1.499,1.776-2.975,2.643-4.427c0.985-1.437,1.953-2.85,2.903-4.237c1.028-1.391,2.038-2.757,3.026-4.095
		c4.161-5.288,8.451-10.137,12.403-14.438c3.957-4.3,7.597-8.067,10.589-11.221c2.998-3.222,5.353-5.753,6.959-7.48
		c1.611-1.767,2.435-2.765,2.435-2.765l-1.369-2.245c0,0-1.266,0.275-3.575,0.896c-2.313,0.592-5.677,1.608-9.919,3.037
		c-4.207,1.487-9.309,3.37-15.01,6.081c-5.69,2.718-12.086,6.098-18.693,10.806c-1.639,1.227-3.312,2.479-5.017,3.756
		c-1.634,1.426-3.298,2.878-4.991,4.356c-1.62,1.604-3.313,3.221-4.949,4.957c-1.546,1.849-3.173,3.687-4.713,5.685
		c-3.053,4.038-5.904,8.539-8.223,13.563c-1.169,2.507-2.353,5.064-3.164,7.811l-0.672,2.042l-0.332,1.027l-0.166,0.516
		l-0.199,0.794c-0.299,1.129-0.585,2.019-0.923,3.85c-0.351,1.685-0.561,3.117-0.783,4.588c-0.198,1.478-0.373,2.967-0.474,4.465
		c-0.217,2.997-0.241,6.025-0.106,9.069C436.274,173.06,437.328,179.191,439.232,185.165z"/>
	<g>
		<path fill="#1F2A35" d="M388.828,1150h393.857c120.383-13.826,202.459-39.933,205.532-70.012H183.294
			C186.367,1110.067,268.444,1136.174,388.828,1150z"/>
		<path fill="#1F2A35" d="M1016.706,646.815c0-79.087-64.057-144.214-146.505-152.97v-61.341c0-18.514-16.124-33.522-36.013-33.522
			H661.634l-0.236,0.753h-14.791l0.234-0.753H325.29c-19.889,0-36.014,15.008-36.014,33.522v505.727
			c0,58.517,50.964,105.955,113.832,105.955H756.37c62.867,0,113.831-47.438,113.831-105.955V799.785
			C952.649,791.029,1016.706,725.901,1016.706,646.815z M870.2,763.945V529.686c61.29,8.518,108.3,57.709,108.3,117.129
			C978.501,706.235,931.49,755.426,870.2,763.945z"/>
	</g>
</g>
</svg>
